<svg xmlns="http://www.w3.org/2000/svg" viewBox="0 0 929.57 253.97"><defs><style>.cls-1{fill:#0b5388;}.cls-2,.cls-9{fill:#1a75bb;}.cls-3{fill:#128907;}.cls-4{fill:#35b729;}.cls-5{fill:#39cf2b;}.cls-6{fill:#4ffd3f;}.cls-7{font-size:54px;fill:#2b2b2b;font-family:Roboto-Bold, Roboto;font-weight:700;letter-spacing:0.07em;}.cls-8{letter-spacing:0.06em;}.cls-9{font-size:30.57px;font-family:Roboto-Regular, Roboto;letter-spacing:0.1em;}</style></defs><g id="Layer_2" data-name="Layer 2"><path class="cls-1" d="M40.68,45.39A31.88,31.88,0,0,1,72,13.13l26.92-.51,4.62,47.65L40.86,61Z"/><path class="cls-2" d="M132.85,167.82a31.88,31.88,0,0,1-32.69-31.6L99.07,12.82l46.86,63.89,3.48,90.68Z"/><path class="cls-3" d="M199.32,132.65a31.89,31.89,0,0,1-32.27-31.37l-.76-46.63,39.48-5.9,1,83.81Z"/><path class="cls-4" d="M167.55,102.7a31.88,31.88,0,0,0,31.75,31.88l49.88.21,2.18-39.55H167.55Z"/><path class="cls-5" d="M256.75,22.64a31.89,31.89,0,0,1-31.81,32.7l-59.31.12L203.05,17l53.5-2.33Z"/><path class="cls-6" d="M256.25,95.89c17.93,2.09,30.67,18.75,31.45,36.78.69,15.61,2.38,28.45-.26,36.83l-39.05-34.86V95Z"/><path class="cls-2" d="M318.18,32.36H272.65V15.72H381.18V32.36h-43V162.92h-20ZM365,109.28q0-26.19,13.1-40.54,13.1-14.55,37-14.55,23.51,0,33.89,14.14,10.61,13.92,10.61,40.33V112H385q.41,18.09,8.52,27.65t23.29,9.56a67.41,67.41,0,0,0,16-1.87,117.37,117.37,0,0,0,17-6.24l5.62,13.31a100.68,100.68,0,0,1-20.17,7.9,83.47,83.47,0,0,1-19.54,2.29q-24.12,0-37.43-14.56T365,109.28Zm50.1-39.71q-12.27,0-19.75,7.07-7.27,7.06-9.56,20.79H439q-1.46-14.34-7.27-21Q425.9,69.57,415.09,69.57Zm58.65,93.35V5.12h19.54v157.8Zm45.32-61.74,45.74,61.74H541.72l-45.11-60.71,38.46-46.15h22Z"/><path class="cls-5" d="M682.56,90.78v62.16q-21,11.87-52,11.86-32,0-49.27-19.55-17.05-19.55-17-56.13t17-55.72q17.25-19.33,49.89-19.34,17.06,0,29.53,5.41a53.2,53.2,0,0,1,21.2,16L668.42,46.7q-13.73-16-37.22-16-22.25,0-34.09,15-11.64,15-11.65,43.46,0,29.1,12.06,44.07,12.27,15,36,15a84.44,84.44,0,0,0,29.11-5V90.78Zm37.7-34.72,2.29,14.76q11.22-16.63,29.52-16.63a54.81,54.81,0,0,1,13.72,2.08l-3.12,17.46a66.4,66.4,0,0,0-13.93-2.08q-8.73,0-14.55,3.54Q728.58,78.51,724,86.62v76.3H704.46V56.06Zm46.68,53.22q0-26,13.1-40.54,13.31-14.55,37.63-14.55T855.1,68.74q13.3,14.55,13.3,40.54T855.1,150Q842,164.6,817.67,164.59T780,150Q766.95,135.27,766.94,109.28Zm20,0q0,19.54,7.9,29.73,8.12,10.2,22.87,10.19T840.34,139q8.1-10.19,8.1-29.73t-8.1-29.52q-7.9-10.19-22.67-10.19T794.8,79.76Q786.91,89.73,786.9,109.28Z"/><text class="cls-7" transform="translate(88.58 240.83)">BRANDING <tspan class="cls-8" x="319.03" y="0">Y</tspan><tspan x="355.69" y="0">OUR BUSINESS</tspan></text><text class="cls-9" transform="translate(868.62 37.84)">TM</text></g></svg>